# xmcd
#
# Track frame offsets:
# 150
# 18297
# 37203
# 51003
# 71055
# 85819
# 105158
# 125819
# 142999
# 158607
# 174327
# 194263
# 210955
# 237129
# 252251
# 275193
# 290478
# 316401
# 336386
#
# Disc length: 4741 seconds
#
#
# Revision: 0
# Processed by: cddbd v1.5.2PL0 Copyright (c) Steve Scherf et al.
# Submitted via: FreeRIP 2.945 
#
DISCID=12128313
DTITLE=Talib Kweli - Spin List vol28 cd3
DYEAR=1900
DGENRE=Hip-Hop
TTITLE0=Getting Up Anthem(Rakim)
TTITLE1=Flash Gordon
TTITLE2=Funny Money(MadLib)
TTITLE3=Country Cousins(UGK)
TTITLE4=Cash Rules(Ray Cash)
TTITLE5=Where Ya Gonna Run(Jean Grae)
TTITLE6=All The Lonely People
TTITLE7=The Beast(Papoose)
TTITLE8=Listen
TTITLE9=Dead Wrond Freestyle
TTITLE10=Who Got It
TTITLE11=Rush
TTITLE12=Bad Girls(Jean Grae)
TTITLE13=Rock On
TTITLE14=The Proud
TTITLE15=We Got The Beat(Planet Rock)
TTITLE16=Two and Two
TTITLE17=Yelling Away(Zap Mama)
TTITLE18=Around My Way(J Legend)
EXTD=
EXTT0=
EXTT1=
EXTT2=
EXTT3=
EXTT4=
EXTT5=
EXTT6=
EXTT7=
EXTT8=
EXTT9=
EXTT10=
EXTT11=
EXTT12=
EXTT13=
EXTT14=
EXTT15=
EXTT16=
EXTT17=
EXTT18=
PLAYORDER=
